#!OML:ASF I:\Actors\actors\Patient Classification 1\Patient 1\Session 1\Subject1.ASF
:FULLY-SPECIFIED
:DEGREES
343
root 1.09294 17.5694 9.75778 8.66494 26.8415 -12.6198
lowerback 6.49518 9.70848 2.85662
upperback -7.76423 13.328 -2.32482
thorax -10.7324 6.15205 -6.00614
lowerneck -17.1481 -8.67293 -4.91811
upperneck 17.5263 -14.0433 15.5687
head 9.96816 -5.19711 4.20886
rclavicle 1.09133e-013 -4.77083e-015
rhumerus -2.07346 28.3215 -100.022
rradius 44.2766
rwrist -24.8222
rhand 11.6552 -64.931
rfingers 7.12502
rthumb 36.6945 -268.926
lclavicle 1.09133e-013 -4.77083e-015
lhumerus -45.8622 5.17552 79.6428
lradius 40.7575
lwrist 24.9785
lhand -23.0565 7.72031
lfingers 7.12502
lthumb 3.38858 37.6731
rfemur -0.482864 22.208 31.5366
rtibia -0.213115
rfoot -31.2141 -43.4132
rtoes 26.9386
lfemur -11.9773 -34.8961 1.40453
ltibia -0.540231
lfoot -3.84516 19.7904
ltoes -21.3731
344
root 1.08667 17.5648 9.75083 8.75459 26.6677 -12.444
lowerback 6.21139 9.61118 2.90817
upperback -7.79362 13.2018 -2.26188
thorax -10.6134 6.09966 -5.89713
lowerneck -17.1901 -8.49822 -4.9368
upperneck 17.9308 -13.788 15.2772
head 10.0623 -5.08912 4.15693
rclavicle -2.56432e-014 5.56597e-015
rhumerus -3.98566 30.1058 -100.109
rradius 46.7263
rwrist -26.326
rhand 11.5549 -65.3639
rfingers 7.12502
rthumb 36.5996 -268.469
lclavicle -2.56432e-014 5.56597e-015
lhumerus -46.0642 2.76338 80.8793
lradius 41.6597
lwrist 27.6138
lhand -24.0249 8.90659
lfingers 7.12502
lthumb 2.45329 38.8722
rfemur -0.515342 22.264 31.3409
rtibia -0.197548
rfoot -31.164 -43.3107
rtoes 26.9356
lfemur -11.89 -35.1159 1.21944
ltibia -0.603179
lfoot -3.85027 20.1308
ltoes -21.173
345
root 1.08011 17.5617 9.74413 8.80222 26.5067 -12.2361
lowerback 6.00363 9.48503 2.96701
upperback -7.82431 13.0387 -2.20371
thorax -10.5418 6.02451 -5.80986
lowerneck -17.2044 -8.30226 -4.98746
upperneck 18.3068 -13.4916 15.0015
head 10.1413 -4.96703 4.1228
rclavicle 1.88845e-014 -1.82882e-014
rhumerus -5.98033 31.588 -100.436
rradius 49.0891
rwrist -27.5547
rhand 11.4667 -65.7917
rfingers 7.12502
rthumb 36.5161 -268.02
lclavicle 1.88845e-014 -1.82882e-014
lhumerus -46.1813 3.96039 80.5161
lradius 41.4592
lwrist 26.3684
lhand -23.8788 8.87585
lfingers 7.12502
lthumb 2.59445 38.8398
rfemur -0.46567 22.3704 31.1426
rtibia -0.222151
rfoot -31.0245 -43.3346
rtoes 26.6978
lfemur -11.7503 -35.3633 0.956928
ltibia -0.642108
lfoot -3.84293 20.4754
ltoes -21.0415
346
root 1.07405 17.5588 9.73736 8.74548 26.3225 -12.1738
lowerback 5.86231 9.35771 3.18086
upperback -7.88756 12.8979 -2.11723
thorax -10.5175 5.94565 -5.79217
lowerneck -17.1145 -8.10135 -4.95655
upperneck 18.6743 -13.201 14.7039
head 10.1919 -4.85005 4.06918
rclavicle -5.27773e-014 1.82882e-014
rhumerus -8.10178 32.9528 -100.96
rradius 51.3691
rwrist -28.7542
rhand 11.3704 -66.1852
rfingers 7.12502
rthumb 36.4249 -267.604
lclavicle -5.27773e-014 1.82882e-014
lhumerus -46.4783 2.91593 81.1143
lradius 42.0625
lwrist 27.4397
lhand -24.3576 9.31603
lfingers 7.12502
lthumb 2.13202 39.2851
rfemur -0.390706 22.3811 31.0952
rtibia -0.225991
rfoot -30.7217 -43.3059
rtoes 26.3251
lfemur -11.5402 -35.5048 0.802884
ltibia -0.702698
lfoot -3.83953 20.7459
ltoes -20.9191
347
root 1.06816 17.554 9.73104 8.73458 26.1209 -12.1416
lowerback 5.59315 9.23145 3.39374
upperback -7.94433 12.7575 -1.98094
thorax -10.4226 5.87477 -5.69679
lowerneck -16.9384 -7.89132 -4.98392
upperneck 19.007 -12.8668 14.3685
head 10.2103 -4.72855 4.01983
rclavicle 6.90777e-014 5.24792e-014
rhumerus -10.3148 34.4408 -101.465
rradius 53.6964
rwrist -30.0583
rhand 11.1673 -66.5811
rfingers 7.12502
rthumb 36.2326 -267.16
lclavicle 6.90777e-014 5.24792e-014
lhumerus -46.8243 1.97745 81.7494
lradius 42.7641
lwrist 28.5125
lhand -24.6002 9.62956
lfingers 7.12502
lthumb 1.89768 39.6009
rfemur -0.380197 22.397 31.0647
rtibia -0.213798
rfoot -30.5265 -43.2072
rtoes 26.2387
lfemur -11.378 -35.5477 0.712724
ltibia -0.786474
lfoot -3.80934 20.9475
ltoes -20.7942
348
root 1.06051 17.5502 9.72518 8.7422 25.8961 -12.0318
lowerback 5.27163 9.0735 3.51943
upperback -7.96414 12.558 -1.85218
thorax -10.2776 5.78468 -5.54568
lowerneck -16.6152 -7.78919 -5.4954
upperneck 18.9924 -12.6882 14.7712
head 10.1906 -4.65741 4.28651
rclavicle -4.55217e-014 -2.94201e-014
rhumerus -12.5613 35.9671 -102.057
rradius 56.0709
rwrist -31.1911
rhand 11.1524 -66.9985
rfingers 7.12502
rthumb 36.2185 -266.739
lclavicle -4.55217e-014 -2.94201e-014
lhumerus -47.0987 1.89836 81.9873
lradius 43.211
lwrist 28.9068
lhand -24.55 9.59498
lfingers 7.12502
lthumb 1.94617 39.5659
rfemur -0.330114 22.528 30.985
rtibia -0.216253
rfoot -30.4345 -43.1775
rtoes 26.2317
lfemur -11.1677 -35.5983 0.52699
ltibia -0.902689
lfoot -3.74739 21.1531
ltoes -20.6734
349
root 1.04811 17.5493 9.71589 8.65732 25.6231 -11.9609
lowerback 5.1351 8.90741 3.68848
upperback -7.99496 12.3559 -1.75462
thorax -10.2389 5.68008 -5.4879
lowerneck -16.6281 -7.34676 -4.78941
upperneck 19.5638 -12.0788 13.7544
head 10.1973 -4.40951 3.9143
rclavicle -9.03973e-014 -4.77083e-015
rhumerus -14.8506 37.3146 -102.839
rradius 58.4236
rwrist -32.0592
rhand 11.1793 -67.4032
rfingers 7.12502
rthumb 36.244 -266.341
lclavicle -9.03973e-014 -4.77083e-015
lhumerus -47.3487 1.85419 82.1211
lradius 43.6291
lwrist 29.2806
lhand -24.4208 9.4565
lfingers 7.12502
lthumb 2.07093 39.4262
rfemur -0.258292 22.6729 30.969
rtibia -0.144095
rfoot -30.3102 -43.1281
rtoes 26.0763
lfemur -10.8782 -35.5374 0.359797
ltibia -1.0352
lfoot -3.73796 21.2888
ltoes -20.5317
350
root 1.03252 17.5473 9.70335 8.60073 25.3185 -11.8945
lowerback 5.07296 8.76737 3.84709
upperback -8.06286 12.1935 -1.65497
thorax -10.2856 5.58995 -5.44668
lowerneck -16.5815 -7.04504 -4.64387
upperneck 19.9845 -11.6677 13.4315
head 10.2597 -4.22806 3.84936
rclavicle 8.40859e-014 -1.03368e-014
rhumerus -17.2469 38.481 -103.684
rradius 60.7312
rwrist -32.7512
rhand 11.1095 -67.6938
rfingers 7.12502
rthumb 36.1779 -266.034
lclavicle 8.40859e-014 -1.03368e-014
lhumerus -47.5983 1.73548 82.3307
lradius 44.0168
lwrist 29.5851
lhand -24.1581 9.18245
lfingers 7.12502
lthumb 2.32471 39.1495
rfemur -0.264362 22.8181 30.9377
rtibia -0.0324902
rfoot -30.1624 -43.0439
rtoes 25.9653
lfemur -10.6769 -35.3375 0.241459
ltibia -1.09705
lfoot -3.795 21.3565
ltoes -20.2898
351
root 1.01938 17.5432 9.6936 8.63728 25.0427 -11.7112
lowerback 4.87529 8.616 3.91859
upperback -8.09852 11.9975 -1.56356
thorax -10.2343 5.49687 -5.33702
lowerneck -16.612 -6.79835 -4.66392
upperneck 20.4002 -11.3053 13.1757
head 10.3573 -4.07272 3.82572
rclavicle -8.74156e-014 -2.46493e-014
rhumerus -19.6224 39.5925 -104.479
rradius 62.9898
rwrist -33.4469
rhand 11.0952 -67.8601
rfingers 7.12502
rthumb 36.1643 -265.864
lclavicle -8.74156e-014 -2.46493e-014
lhumerus -47.7261 1.47786 82.6679
lradius 44.1985
lwrist 29.9028
lhand -24.0245 8.79757
lfingers 7.12502
lthumb 2.45367 38.7632
rfemur -0.242014 22.9817 30.7757
rtibia -0.04426
rfoot -29.9717 -43.0383
rtoes 25.895
lfemur -10.533 -35.2368 -0.00214874
ltibia -1.09978
lfoot -3.84711 21.4662
ltoes -20.0829
352
root 1.00745 17.54 9.68617 8.71045 24.8134 -11.5094
lowerback 4.58207 8.43808 4.00057
upperback -8.11614 11.7587 -1.48892
thorax -10.104 5.38662 -5.22705
lowerneck -16.6132 -6.52855 -4.4832
upperneck 20.6739 -10.8998 12.7437
head 10.3711 -3.9107 3.70907
rclavicle 6.16729e-014 4.77083e-015
rhumerus -21.841 40.5685 -105.24
rradius 65.1007
rwrist -34.0496
rhand 11.2923 -67.9854
rfingers 7.12502
rthumb 36.351 -265.785
lclavicle 6.16729e-014 4.77083e-015
lhumerus -47.7461 1.15156 83.0219
lradius 44.2549
lwrist 30.2116
lhand -23.9763 8.45515
lfingers 7.12502
lthumb 2.50025 38.4202
rfemur -0.240829 23.1346 30.5795
rtibia -0.0754453
rfoot -29.8258 -43.0471
rtoes 25.8525
lfemur -10.4468 -35.2112 -0.235759
ltibia -1.09411
lfoot -3.89379 21.5932
ltoes -19.9412
353
root 0.994393 17.5366 9.67669 8.8079 24.5903 -11.3674
lowerback 4.29248 8.25168 4.13998
upperback -8.18155 11.5184 -1.39513
thorax -10.0233 5.26883 -5.13518
lowerneck -16.4953 -6.2335 -4.24959
upperneck 20.9175 -10.4446 12.2192
head 10.3399 -3.73878 3.55903
rclavicle 1.3008e-013 5.32743e-014
rhumerus -24.1571 41.3797 -106.05
rradius 67.0846
rwrist -34.3682
rhand 11.551 -68.0577
rfingers 7.12502
rthumb 36.5959 -265.774
lclavicle 1.3008e-013 5.32743e-014
lhumerus -47.9126 1.10283 83.1947
lradius 44.5409
lwrist 30.7167
lhand -23.4892 7.94369
lfingers 7.12502
lthumb 2.97066 37.9027
rfemur -0.352132 23.3316 30.4153
rtibia -0.0232818
rfoot -29.7812 -43.049
rtoes 25.8355
lfemur -10.4735 -35.1583 -0.326435
ltibia -1.07527
lfoot -3.94085 21.7333
ltoes -19.8208
354
root 0.981984 17.5314 9.66678 8.89506 24.3874 -11.2303
lowerback 3.9915 8.00674 4.29646
upperback -8.24326 11.2024 -1.26054
thorax -9.94489 5.11401 -5.00297
lowerneck -16.3422 -5.8808 -4.09918
upperneck 21.1549 -9.8913 11.7253
head 10.301 -3.52713 3.44842
rclavicle -4.67144e-015 -8.74653e-015
rhumerus -26.5279 42.1502 -106.973
rradius 68.9307
rwrist -34.4989
rhand 11.6669 -68.0407
rfingers 7.12502
rthumb 36.7056 -265.819
lclavicle -4.67144e-015 -8.74653e-015
lhumerus -48.2289 1.50447 83.0301
lradius 44.9887
lwrist 31.8847
lhand -22.0598 6.57271
lfingers 7.12502
lthumb 4.35098 36.508
rfemur -0.462477 23.4888 30.2586
rtibia 0.041418
rfoot -29.6385 -43.0578
rtoes 25.6909
lfemur -10.4914 -35.162 -0.413345
ltibia -1.06779
lfoot -3.96092 21.9236
ltoes -19.7444
355
root 0.975901 17.5227 9.65462 8.70584 24.2682 -11.412
lowerback 3.81156 7.69224 4.95395
upperback -8.2667 10.8436 -1.08413
thorax -9.82026 4.90246 -5.10123
lowerneck -16.1455 -5.48404 -3.85969
upperneck 21.3295 -9.27924 11.183
head 10.2233 -3.29079 3.31239
rclavicle -8.54774e-015 -7.95139e-016
rhumerus -28.6433 42.5849 -108.053
rradius 70.4246
rwrist -34.3068
rhand 11.8283 -67.9349
rfingers 7.12502
rthumb 36.8583 -265.964
lclavicle -8.54774e-015 -7.95139e-016
lhumerus -48.7543 1.15381 83.6425
lradius 45.7994
lwrist 30.5784
lhand -23.6231 7.75947
lfingers 7.12502
lthumb 2.84133 37.7203
rfemur -0.389594 23.1894 30.4883
rtibia 0.08184
rfoot -29.0458 -42.8462
rtoes 25.0233
lfemur -10.2628 -35.0259 -0.344967
ltibia -1.13101
lfoot -3.99994 21.8994
ltoes -19.5743
356
root 0.979864 17.5084 9.63063 8.05898 24.2224 -12.1727
lowerback 4.06556 7.37229 6.55852
upperback -8.31256 10.5971 -0.878745
thorax -9.82245 4.66227 -5.74882
lowerneck -15.9011 -5.12207 -3.61529
upperneck 21.5364 -8.72664 10.6682
head 10.1605 -3.07743 3.17631
rclavicle 3.14421e-014 1.82882e-014
rhumerus -30.7312 42.4002 -109.168
rradius 71.7084
rwrist -33.8356
rhand 12.1344 -67.7391
rfingers 7.12502
rthumb 37.1479 -266.235
lclavicle 3.14421e-014 1.82882e-014
lhumerus -49.1939 0.956204 83.9423
lradius 46.425
lwrist 29.9934
lhand -24.0693 8.49428
lfingers 7.12502
lthumb 2.41047 38.4604
rfemur -0.0764756 22.2938 31.3643
rtibia 0.0957397
rfoot -28.0326 -42.2361
rtoes 23.9732
lfemur -9.70331 -34.6832 0.0761013
ltibia -1.27305
lfoot -4.04566 21.5938
ltoes -19.4962
357
root 0.95053 17.5146 9.6451 8.61959 23.7448 -11.1702
lowerback 3.59933 7.20909 5.57431
upperback -8.44774 10.2522 -0.979529
thorax -9.88077 4.56366 -5.25358
lowerneck -15.7398 -4.78264 -3.4036
upperneck 21.8854 -8.21638 10.182
head 10.1761 -2.87407 3.04958
rclavicle -4.61522e-014 -2.62396e-014
rhumerus -33.2133 43.616 -110.106
rradius 73.4543
rwrist -35.2015
rhand 11.9416 -67.1354
rfingers 7.12502
rthumb 36.9655 -266.791
lclavicle -4.61522e-014 -2.62396e-014
lhumerus -49.453 0.957204 83.965
lradius 46.6531
lwrist 30.021
lhand -23.6048 8.39964
lfingers 7.12502
lthumb 2.85903 38.3602
rfemur -0.18852 23.5585 30.3772
rtibia 0.0899793
rfoot -28.9521 -42.7867
rtoes 25.1746
lfemur -9.63572 -35.2782 -0.799397
ltibia -1.42408
lfoot -4.02447 22.5125
ltoes -19.075
